<svg width="24" height="24" viewBox="0 0 24 24" fill="none" xmlns="http://www.w3.org/2000/svg">
<g clip-path="url(#clip0_254_8629)">
<path d="M23.5258 9.75C23.6758 10.5525 23.7583 11.3925 23.7583 12.27C23.7583 19.125 19.1683 24 12.2383 24C5.60828 24 0.238281 18.63 0.238281 12C0.238281 5.37 5.60828 0 12.2383 0C15.4783 0 18.1858 1.1925 20.2633 3.1275L16.8808 6.51V6.5025C15.6208 5.3025 14.0233 4.6875 12.239 4.6875C8.27903 4.6875 5.06153 8.0325 5.06153 11.9925C5.06153 15.9517 8.27903 19.305 12.239 19.305C15.8315 19.305 18.2765 17.25 18.7798 14.43H12.2383V9.75H23.5258Z" fill="white"/>
</g>
<defs>
<clipPath id="clip0_254_8629">
<rect width="24" height="24" fill="white"/>
</clipPath>
</defs>
</svg>
