<svg width="24" height="24" viewBox="0 0 24 24" fill="none" xmlns="http://www.w3.org/2000/svg">
<path d="M19.3004 17.7002C20.3004 16.6002 20.9004 15.4002 20.9004 13.4002C20.9004 9.9002 18.4004 6.8002 14.9004 5.2002L14.0004 6.5002C17.3004 8.3002 18.0004 10.6002 18.2004 12.1002C17.7004 11.8002 17.0004 11.7002 16.3004 11.8002C14.5004 12.0002 13.1004 13.4002 13.1004 15.3002C13.1004 16.2002 13.5004 17.1002 14.1004 17.8002C14.8004 18.5002 15.6004 18.8002 16.6004 18.8002C17.7004 18.8002 18.7004 18.3002 19.3004 17.7002ZM9.30039 17.7002C10.3004 16.6002 10.9004 15.4002 10.9004 13.4002C10.9004 9.9002 8.40039 6.8002 4.90039 5.2002L4.00039 6.5002C7.30039 8.3002 8.00039 10.6002 8.20039 12.1002C7.70039 11.8002 7.00039 11.7002 6.30039 11.8002C4.50039 12.0002 3.10039 13.4002 3.10039 15.3002C3.10039 16.2002 3.50039 17.1002 4.10039 17.8002C4.70039 18.5002 5.60039 18.8002 6.60039 18.8002C7.70039 18.8002 8.70039 18.3002 9.30039 17.7002Z" fill="white"/>
</svg>
