<svg width="19" height="17" viewBox="0 0 19 17" fill="none" xmlns="http://www.w3.org/2000/svg">
<path d="M5.08029 16C6.55898 16.0495 8.03259 15.8021 9.41403 15.2723C10.7955 14.7426 12.0567 13.9413 13.1232 12.9159C14.1897 11.8904 15.0398 10.6615 15.6233 9.30193C16.2067 7.94232 16.5118 6.47954 16.5203 5.00004C17.1979 4.16146 17.7011 3.19587 18.0003 2.16004C18.0226 2.07821 18.0208 1.99166 17.9951 1.91082C17.9694 1.82998 17.9208 1.7583 17.8553 1.70441C17.7898 1.65052 17.7101 1.61672 17.6258 1.60707C17.5416 1.59743 17.4563 1.61235 17.3803 1.65004C17.0258 1.8207 16.6266 1.87582 16.2391 1.80765C15.8516 1.73948 15.4953 1.55145 15.2203 1.27004C14.8692 0.885622 14.4446 0.575575 13.9715 0.358271C13.4985 0.140968 12.9866 0.0208309 12.4662 0.00497798C11.9459 -0.010875 11.4276 0.0778791 10.9422 0.265981C10.4568 0.454083 10.0141 0.737706 9.64028 1.10004C9.12848 1.5957 8.75361 2.21533 8.5521 2.89872C8.35058 3.5821 8.32929 4.306 8.49028 5.00004C5.14028 5.20004 2.84029 3.61004 1.00029 1.43004C0.945008 1.36745 0.872699 1.3223 0.792188 1.30011C0.711677 1.27793 0.626449 1.27967 0.546911 1.30512C0.467372 1.33057 0.396967 1.37864 0.344292 1.44344C0.291616 1.50824 0.258951 1.58698 0.250285 1.67004C-0.100245 3.61447 0.152615 5.61959 0.974904 7.41611C1.79719 9.21264 3.14953 10.7145 4.85029 11.72C3.70992 13.0279 2.10849 13.8447 0.380286 14C0.287698 14.0154 0.202227 14.0593 0.135837 14.1257C0.0694465 14.192 0.0254586 14.2774 0.0100294 14.37C-0.00539983 14.4626 0.00850193 14.5577 0.049789 14.6419C0.0910761 14.7262 0.157682 14.7955 0.240285 14.84C1.74381 15.5914 3.39952 15.9882 5.08029 16Z" fill="white"/>
</svg>
